<?xml version="1.0" encoding="UTF-8" ?>
<!DOCTYPE svg PUBLIC "-//W3C//DTD SVG 1.1//EN" "http://www.w3.org/Graphics/SVG/1.1/DTD/svg11.dtd">
<svg width="768pt" height="768pt" viewBox="0 0 768 768" version="1.1" xmlns="http://www.w3.org/2000/svg">
<g id="#e87b08ff">
<path fill="#e87b08" opacity="1.00" d=" M 0.00 0.00 L 768.00 0.00 L 768.00 768.00 L 0.00 768.00 L 0.00 0.00 M 271.46 130.92 C 271.27 168.63 271.36 206.35 271.42 244.05 C 271.49 262.83 285.78 279.90 304.04 283.86 C 275.60 332.45 247.13 381.03 218.60 429.57 C 190.75 429.71 162.90 429.37 135.05 429.74 C 114.21 430.53 96.19 449.11 96.05 469.97 C 95.96 507.66 95.93 545.36 96.06 583.06 C 96.37 604.12 114.93 622.62 135.97 622.96 C 184.65 623.07 233.34 623.04 282.03 622.98 C 303.19 622.78 321.88 604.12 322.11 582.95 C 322.31 545.98 322.16 509.00 322.19 472.02 C 322.50 457.80 315.05 443.69 302.95 436.15 C 292.38 428.89 279.14 429.38 266.90 429.62 C 294.57 381.23 323.15 333.32 351.23 285.15 C 372.81 285.08 394.41 285.12 415.99 285.13 C 417.45 284.85 417.99 286.40 418.63 287.36 C 446.31 334.87 474.68 381.99 502.09 429.64 C 491.72 429.71 480.80 428.60 471.13 433.19 C 455.98 439.56 445.86 455.61 446.27 471.99 C 446.25 508.33 446.24 544.67 446.28 581.01 C 445.56 602.69 464.26 622.48 485.95 622.95 C 534.63 623.09 583.33 623.02 632.02 622.99 C 653.28 622.92 672.13 604.23 672.39 582.97 C 672.55 545.32 672.52 507.67 672.41 470.03 C 672.24 449.00 654.21 429.96 633.08 429.26 C 605.38 428.95 577.66 429.23 549.95 429.12 C 521.31 380.79 492.88 332.33 464.47 283.86 C 482.79 279.92 497.32 262.92 497.51 244.06 C 497.58 206.35 497.67 168.63 497.47 130.93 C 497.04 109.78 478.20 91.31 457.05 91.31 C 408.69 91.23 360.32 91.23 311.95 91.30 C 290.79 91.28 271.89 109.77 271.46 130.92 Z" />
</g>
<g id="#ffffffff">
<path fill="#ffffff" opacity="1.00" d=" M 271.46 130.92 C 271.89 109.77 290.79 91.28 311.95 91.30 C 360.32 91.23 408.69 91.23 457.05 91.31 C 478.20 91.31 497.04 109.78 497.47 130.93 C 497.67 168.63 497.58 206.35 497.51 244.06 C 497.32 262.92 482.79 279.92 464.47 283.86 C 492.88 332.33 521.31 380.79 549.95 429.12 C 577.66 429.23 605.38 428.95 633.08 429.26 C 654.21 429.96 672.24 449.00 672.41 470.03 C 672.52 507.67 672.55 545.32 672.39 582.97 C 672.13 604.23 653.28 622.92 632.02 622.99 C 583.33 623.02 534.63 623.09 485.95 622.95 C 464.26 622.48 445.56 602.69 446.28 581.01 C 446.24 544.67 446.25 508.33 446.27 471.99 C 445.86 455.61 455.98 439.56 471.13 433.19 C 480.80 428.60 491.72 429.71 502.09 429.64 C 474.68 381.99 446.31 334.87 418.63 287.36 C 417.99 286.40 417.45 284.85 415.99 285.13 C 394.41 285.12 372.81 285.08 351.23 285.15 C 323.15 333.32 294.57 381.23 266.90 429.62 C 279.14 429.38 292.38 428.89 302.95 436.15 C 315.05 443.69 322.50 457.80 322.19 472.02 C 322.16 509.00 322.31 545.98 322.11 582.95 C 321.88 604.12 303.19 622.78 282.03 622.98 C 233.34 623.04 184.65 623.07 135.97 622.96 C 114.93 622.62 96.37 604.12 96.06 583.06 C 95.93 545.36 95.96 507.66 96.05 469.97 C 96.19 449.11 114.21 430.53 135.05 429.74 C 162.90 429.37 190.75 429.71 218.60 429.57 C 247.13 381.03 275.60 332.45 304.04 283.86 C 285.78 279.90 271.49 262.83 271.42 244.05 C 271.36 206.35 271.27 168.63 271.46 130.92 Z" />
</g>
</svg>
